<?xml version="1.0" standalone="no"?><svg xmlns="http://www.w3.org/2000/svg" viewBox="0 0 1440 320"><path fill="#FFADF0" fill-opacity="1" d="M0,192L8,202.7C16,213,32,235,48,218.7C64,203,80,149,96,122.7C112,96,128,96,144,96C160,96,176,96,192,96C208,96,224,96,240,101.3C256,107,272,117,288,133.3C304,149,320,171,336,197.3C352,224,368,256,384,256C400,256,416,224,432,197.3C448,171,464,149,480,122.7C496,96,512,64,528,69.3C544,75,560,117,576,165.3C592,213,608,267,624,266.7C640,267,656,213,672,208C688,203,704,245,720,266.7C736,288,752,288,768,240C784,192,800,96,816,69.3C832,43,848,85,864,85.3C880,85,896,43,912,53.3C928,64,944,128,960,149.3C976,171,992,149,1008,170.7C1024,192,1040,256,1056,272C1072,288,1088,256,1104,208C1120,160,1136,96,1152,96C1168,96,1184,160,1200,165.3C1216,171,1232,117,1248,85.3C1264,53,1280,43,1296,48C1312,53,1328,75,1344,80C1360,85,1376,75,1392,74.7C1408,75,1424,85,1432,90.7L1440,96L1440,320L1432,320C1424,320,1408,320,1392,320C1376,320,1360,320,1344,320C1328,320,1312,320,1296,320C1280,320,1264,320,1248,320C1232,320,1216,320,1200,320C1184,320,1168,320,1152,320C1136,320,1120,320,1104,320C1088,320,1072,320,1056,320C1040,320,1024,320,1008,320C992,320,976,320,960,320C944,320,928,320,912,320C896,320,880,320,864,320C848,320,832,320,816,320C800,320,784,320,768,320C752,320,736,320,720,320C704,320,688,320,672,320C656,320,640,320,624,320C608,320,592,320,576,320C560,320,544,320,528,320C512,320,496,320,480,320C464,320,448,320,432,320C416,320,400,320,384,320C368,320,352,320,336,320C320,320,304,320,288,320C272,320,256,320,240,320C224,320,208,320,192,320C176,320,160,320,144,320C128,320,112,320,96,320C80,320,64,320,48,320C32,320,16,320,8,320L0,320Z"></path></svg>